<svg xmlns="http://www.w3.org/2000/svg" width="128" height="128" viewBox="0 0 33.867 33.867" id="messenger"><path fill="#00a1ff" d="M16.933 1.058A15.875 15.875 0 0 0 1.058 16.933a15.875 15.875 0 0 0 3.268 9.647c-.649 1.781-.889 3.87-.238 4.52.703.703 3.082.369 4.94-.4a15.875 15.875 0 0 0 7.905 2.108 15.875 15.875 0 0 0 15.875-15.875A15.875 15.875 0 0 0 16.933 1.058z" paint-order="fill markers stroke"></path><path fill="#fff" d="M25.072 12.834c-.418-.242-1-.2-1.439.303l-2.946 3.182-6.906-3.987a2.403 2.403 0 0 0-3.29.882c-.024.04-.225.39-.279.545l-1.875 5.876c-.432 1.262 1.02 2.1 1.897 1.095l2.946-3.183 6.906 3.988a2.403 2.403 0 0 0 3.29-.882c.024-.04.228-.39.278-.546l1.876-5.875c.216-.631-.04-1.156-.458-1.398z" paint-order="fill markers stroke"></path></svg>